<svg width="56" height="56" viewBox="0 0 56 56" fill="none" xmlns="http://www.w3.org/2000/svg">
<g clip-path="url(#clip0_66_5426)">
<path fill-rule="evenodd" clip-rule="evenodd" d="M40.25 52.5002C40.7141 52.5002 41.1593 52.3158 41.4874 51.9876C41.8156 51.6594 42 51.2143 42 50.7502V9.4747L53.011 20.4892C53.3396 20.8178 53.7853 21.0024 54.25 21.0024C54.7147 21.0024 55.1604 20.8178 55.489 20.4892C55.8176 20.1606 56.0022 19.7149 56.0022 19.2502C56.0022 18.7855 55.8176 18.3398 55.489 18.0112L41.489 4.0112C41.3265 3.84823 41.1333 3.71893 40.9207 3.6307C40.7081 3.54248 40.4802 3.49707 40.25 3.49707C40.0198 3.49707 39.7919 3.54248 39.5793 3.6307C39.3667 3.71893 39.1736 3.84823 39.011 4.0112L25.011 18.0112C24.6824 18.3398 24.4978 18.7855 24.4978 19.2502C24.4978 19.7149 24.6824 20.1606 25.011 20.4892C25.3396 20.8178 25.7853 21.0024 26.25 21.0024C26.7147 21.0024 27.1604 20.8178 27.489 20.4892L38.5 9.4747V50.7502C38.5 51.2143 38.6844 51.6594 39.0126 51.9876C39.3408 52.3158 39.7859 52.5002 40.25 52.5002ZM15.75 3.5002C16.2141 3.5002 16.6593 3.68457 16.9874 4.01276C17.3156 4.34095 17.5 4.78607 17.5 5.2502V46.5257L28.511 35.5112C28.8396 35.1826 29.2853 34.998 29.75 34.998C30.2147 34.998 30.6604 35.1826 30.989 35.5112C31.3176 35.8398 31.5022 36.2855 31.5022 36.7502C31.5022 37.2149 31.3176 37.6606 30.989 37.9892L16.989 51.9892C16.8265 52.1522 16.6333 52.2815 16.4207 52.3697C16.2081 52.4579 15.9802 52.5033 15.75 52.5033C15.5198 52.5033 15.2919 52.4579 15.0793 52.3697C14.8667 52.2815 14.6736 52.1522 14.511 51.9892L0.511013 37.9892C0.18241 37.6606 -0.00219728 37.2149 -0.00219727 36.7502C-0.00219725 36.2855 0.18241 35.8398 0.511013 35.5112C0.839617 35.1826 1.2853 34.998 1.75001 34.998C2.21473 34.998 2.66041 35.1826 2.98901 35.5112L14 46.5257V5.2502C14 4.78607 14.1844 4.34095 14.5126 4.01276C14.8408 3.68457 15.2859 3.5002 15.75 3.5002Z" fill="#FFC107"/>
</g>
<defs>
<clipPath id="clip0_66_5426">
<rect width="56" height="56" fill="white"/>
</clipPath>
</defs>
</svg>
