<svg width="56" height="56" viewBox="0 0 56 56" fill="none" xmlns="http://www.w3.org/2000/svg">
<g clip-path="url(#clip0_66_5431)">
<path fill-rule="evenodd" clip-rule="evenodd" d="M26.761 0.511199C26.9235 0.348227 27.1166 0.218927 27.3292 0.130705C27.5418 0.0424821 27.7698 -0.00292969 28 -0.00292969C28.2301 -0.00292969 28.4581 0.0424821 28.6707 0.130705C28.8833 0.218927 29.0764 0.348227 29.239 0.511199L36.239 7.5112C36.4017 7.67391 36.5307 7.86707 36.6188 8.07966C36.7068 8.29224 36.7522 8.52009 36.7522 8.7502C36.7522 8.9803 36.7068 9.20815 36.6188 9.42074C36.5307 9.63333 36.4017 9.82649 36.239 9.9892C36.0762 10.1519 35.8831 10.281 35.6705 10.369C35.4579 10.4571 35.2301 10.5024 35 10.5024C34.7699 10.5024 34.542 10.4571 34.3294 10.369C34.1168 10.281 33.9237 10.1519 33.761 9.9892L29.75 5.9747V19.2502C29.75 19.7143 29.5656 20.1594 29.2374 20.4876C28.9092 20.8158 28.4641 21.0002 28 21.0002C27.5358 21.0002 27.0907 20.8158 26.7625 20.4876C26.4343 20.1594 26.25 19.7143 26.25 19.2502V5.9747L22.239 9.9892C21.9104 10.3178 21.4647 10.5024 21 10.5024C20.5352 10.5024 20.0896 10.3178 19.761 9.9892C19.4324 9.6606 19.2477 9.21491 19.2477 8.7502C19.2477 8.28548 19.4324 7.8398 19.761 7.5112L26.761 0.511199ZM28 35.0002C28.4641 35.0002 28.9092 35.1846 29.2374 35.5128C29.5656 35.841 29.75 36.2861 29.75 36.7502V50.0257L33.761 46.0112C34.0896 45.6826 34.5352 45.498 35 45.498C35.4647 45.498 35.9104 45.6826 36.239 46.0112C36.5676 46.3398 36.7522 46.7855 36.7522 47.2502C36.7522 47.7149 36.5676 48.1606 36.239 48.4892L29.239 55.4892C29.0764 55.6522 28.8833 55.7815 28.6707 55.8697C28.4581 55.9579 28.2301 56.0033 28 56.0033C27.7698 56.0033 27.5418 55.9579 27.3292 55.8697C27.1166 55.7815 26.9235 55.6522 26.761 55.4892L19.761 48.4892C19.5982 48.3265 19.4692 48.1333 19.3811 47.9207C19.2931 47.7082 19.2477 47.4803 19.2477 47.2502C19.2477 47.0201 19.2931 46.7922 19.3811 46.5797C19.4692 46.3671 19.5982 46.1739 19.761 46.0112C20.0896 45.6826 20.5352 45.498 21 45.498C21.2301 45.498 21.4579 45.5433 21.6705 45.6314C21.8831 45.7194 22.0762 45.8485 22.239 46.0112L26.25 50.0257V36.7502C26.25 36.2861 26.4343 35.841 26.7625 35.5128C27.0907 35.1846 27.5358 35.0002 28 35.0002ZM0.510954 29.2392C0.347983 29.0766 0.218683 28.8835 0.130461 28.6709C0.042238 28.4583 -0.00317383 28.2304 -0.00317383 28.0002C-0.00317383 27.77 0.042238 27.5421 0.130461 27.3295C0.218683 27.1169 0.347983 26.9238 0.510954 26.7612L7.51095 19.7612C7.83956 19.4326 8.28524 19.248 8.74995 19.248C9.21467 19.248 9.66035 19.4326 9.98895 19.7612C10.3176 20.0898 10.5022 20.5355 10.5022 21.0002C10.5022 21.4649 10.3176 21.9106 9.98895 22.2392L5.97445 26.2502H19.25C19.7141 26.2502 20.1592 26.4346 20.4874 26.7628C20.8156 27.091 21 27.5361 21 28.0002C21 28.4643 20.8156 28.9094 20.4874 29.2376C20.1592 29.5658 19.7141 29.7502 19.25 29.7502H5.97445L9.98895 33.7612C10.3176 34.0898 10.5022 34.5355 10.5022 35.0002C10.5022 35.4649 10.3176 35.9106 9.98895 36.2392C9.66035 36.5678 9.21467 36.7524 8.74995 36.7524C8.28524 36.7524 7.83956 36.5678 7.51095 36.2392L0.510954 29.2392ZM35 28.0002C35 27.5361 35.1843 27.091 35.5125 26.7628C35.8407 26.4346 36.2858 26.2502 36.75 26.2502H50.0255L46.011 22.2392C45.8482 22.0765 45.7192 21.8833 45.6311 21.6707C45.5431 21.4582 45.4977 21.2303 45.4977 21.0002C45.4977 20.7701 45.5431 20.5422 45.6311 20.3297C45.7192 20.1171 45.8482 19.9239 46.011 19.7612C46.3396 19.4326 46.7852 19.248 47.25 19.248C47.4801 19.248 47.7079 19.2933 47.9205 19.3814C48.1331 19.4694 48.3262 19.5985 48.489 19.7612L55.489 26.7612C55.6519 26.9238 55.7812 27.1169 55.8694 27.3295C55.9577 27.5421 56.0031 27.77 56.0031 28.0002C56.0031 28.2304 55.9577 28.4583 55.8694 28.6709C55.7812 28.8835 55.6519 29.0766 55.489 29.2392L48.489 36.2392C48.3262 36.4019 48.1331 36.531 47.9205 36.619C47.7079 36.7071 47.4801 36.7524 47.25 36.7524C47.0199 36.7524 46.792 36.7071 46.5794 36.619C46.3668 36.531 46.1737 36.4019 46.011 36.2392C45.8482 36.0765 45.7192 35.8833 45.6311 35.6707C45.5431 35.4582 45.4977 35.2303 45.4977 35.0002C45.4977 34.7701 45.5431 34.5422 45.6311 34.3297C45.7192 34.1171 45.8482 33.9239 46.011 33.7612L50.0255 29.7502H36.75C36.2858 29.7502 35.8407 29.5658 35.5125 29.2376C35.1843 28.9094 35 28.4643 35 28.0002Z" fill="#FFC107"/>
</g>
<defs>
<clipPath id="clip0_66_5431">
<rect width="56" height="56" fill="white"/>
</clipPath>
</defs>
</svg>
