<svg width="56" height="56" viewBox="0 0 56 56" fill="none" xmlns="http://www.w3.org/2000/svg">
<path fill-rule="evenodd" clip-rule="evenodd" d="M33.726 8.75C33.726 8.28587 33.5416 7.84075 33.2134 7.51256C32.8852 7.18437 32.4401 7 31.976 7H8.75C7.35761 7 6.02226 7.55312 5.03769 8.53769C4.05312 9.52226 3.5 10.8576 3.5 12.25V47.25C3.5 48.6424 4.05312 49.9777 5.03769 50.9623C6.02226 51.9469 7.35761 52.5 8.75 52.5H43.75C45.1424 52.5 46.4777 51.9469 47.4623 50.9623C48.4469 49.9777 49 48.6424 49 47.25V24.024C49 23.5599 48.8156 23.1148 48.4874 22.7866C48.1592 22.4584 47.7141 22.274 47.25 22.274C46.7859 22.274 46.3408 22.4584 46.0126 22.7866C45.6844 23.1148 45.5 23.5599 45.5 24.024V47.25C45.5 47.7141 45.3156 48.1592 44.9874 48.4874C44.6592 48.8156 44.2141 49 43.75 49H8.75C8.28587 49 7.84075 48.8156 7.51256 48.4874C7.18437 48.1592 7 47.7141 7 47.25V12.25C7 11.7859 7.18437 11.3408 7.51256 11.0126C7.84075 10.6844 8.28587 10.5 8.75 10.5H31.976C32.4401 10.5 32.8852 10.3156 33.2134 9.98744C33.5416 9.65925 33.726 9.21413 33.726 8.75Z" fill="#FFC107"/>
<path fill-rule="evenodd" clip-rule="evenodd" d="M17.5 36.7503C17.5 37.2144 17.6844 37.6595 18.0126 37.9877C18.3408 38.3159 18.7859 38.5003 19.25 38.5003H36.75C37.2141 38.5003 37.6592 38.3159 37.9874 37.9877C38.3156 37.6595 38.5 37.2144 38.5 36.7503C38.5 36.2861 38.3156 35.841 37.9874 35.5128C37.6592 35.1846 37.2141 35.0003 36.75 35.0003H23.4745L51.989 6.48926C52.1517 6.32655 52.2808 6.13339 52.3688 5.9208C52.4569 5.70821 52.5022 5.48036 52.5022 5.25026C52.5022 5.02015 52.4569 4.7923 52.3688 4.57972C52.2808 4.36713 52.1517 4.17397 51.989 4.01126C51.8263 3.84855 51.6331 3.71948 51.4205 3.63143C51.208 3.54337 50.9801 3.49805 50.75 3.49805C50.5199 3.49805 50.292 3.54337 50.0795 3.63143C49.8669 3.71948 49.6737 3.84855 49.511 4.01126L21 32.5258V19.2503C21 18.7861 20.8156 18.341 20.4874 18.0128C20.1592 17.6846 19.7141 17.5003 19.25 17.5003C18.7859 17.5003 18.3408 17.6846 18.0126 18.0128C17.6844 18.341 17.5 18.7861 17.5 19.2503V36.7503Z" fill="#FFC107"/>
</svg>
