<svg width="11" height="13" viewBox="0 0 11 13" fill="none" xmlns="http://www.w3.org/2000/svg">
<path fill-rule="evenodd" clip-rule="evenodd" d="M6.10001 0.990512C6.29865 1.00092 6.48502 1.08982 6.61812 1.23764C6.75122 1.38546 6.82014 1.5801 6.80973 1.77874L6.35496 10.4563L9.7381 7.40871C9.81138 7.34272 9.89695 7.29182 9.98991 7.2589C10.0829 7.22598 10.1814 7.21169 10.2799 7.21685C10.3784 7.22202 10.4749 7.24652 10.5639 7.28898C10.6529 7.33143 10.7327 7.39101 10.7986 7.46429C10.8646 7.53758 10.9155 7.62314 10.9485 7.7161C10.9814 7.80906 10.9957 7.90759 10.9905 8.00607C10.9853 8.10456 10.9608 8.20106 10.9184 8.29006C10.8759 8.37907 10.8163 8.45885 10.7431 8.52484L6.01372 12.7832C5.94049 12.8493 5.85494 12.9003 5.76197 12.9333C5.66899 12.9662 5.57043 12.9806 5.47191 12.9754C5.3734 12.9702 5.27687 12.9457 5.18785 12.9032C5.09884 12.8606 5.01909 12.801 4.95317 12.7276L0.69485 7.99823C0.628863 7.92495 0.577957 7.83938 0.545039 7.74642C0.51212 7.65346 0.497833 7.55493 0.502994 7.45645C0.508156 7.35797 0.532664 7.26147 0.575119 7.17246C0.617574 7.08345 0.677145 7.00367 0.750431 6.93769C0.898438 6.80442 1.09332 6.73541 1.29221 6.74583C1.3907 6.75099 1.4872 6.7755 1.5762 6.81796C1.66521 6.86041 1.74499 6.91998 1.81098 6.99327L4.85702 10.3778L5.31179 1.70023C5.3222 1.50159 5.41109 1.31522 5.55891 1.18213C5.70673 1.04903 5.90137 0.980101 6.10001 0.990512Z" fill="#E11616"/>
</svg>
