<svg width="14" height="12" viewBox="0 0 14 12" fill="none" xmlns="http://www.w3.org/2000/svg">
<path fill-rule="evenodd" clip-rule="evenodd" d="M-2.62268e-07 6C-2.72203e-07 5.77271 0.0921768 5.55473 0.256253 5.39402C0.420329 5.2333 0.642864 5.14301 0.874902 5.14301L11.0115 5.14301L7.25469 1.46482C7.17334 1.38514 7.10882 1.29055 7.06479 1.18644C7.02077 1.08234 6.99811 0.970754 6.99811 0.858071C6.99811 0.745388 7.02077 0.633807 7.06479 0.529701C7.10882 0.425595 7.17334 0.331003 7.25469 0.251323C7.33603 0.171644 7.4326 0.108439 7.53889 0.0653168C7.64517 0.0221945 7.75908 6.14514e-07 7.87412 6.09486e-07C7.98916 6.04457e-07 8.10307 0.0221945 8.20935 0.0653168C8.31564 0.108439 8.41221 0.171644 8.49355 0.251323L13.743 5.39325C13.8244 5.47286 13.8891 5.56743 13.9332 5.67154C13.9773 5.77566 14 5.88728 14 6C14 6.11272 13.9773 6.22434 13.9332 6.32846C13.8891 6.43257 13.8244 6.52714 13.743 6.60675L8.49355 11.7487C8.41221 11.8284 8.31564 11.8916 8.20935 11.9347C8.10307 11.9778 7.98916 12 7.87412 12C7.75908 12 7.64517 11.9778 7.53889 11.9347C7.4326 11.8916 7.33603 11.8284 7.25469 11.7487C7.09041 11.5878 6.99811 11.3695 6.99811 11.1419C6.99811 11.0292 7.02077 10.9177 7.06479 10.8136C7.10882 10.7095 7.17335 10.6149 7.25469 10.5352L11.0115 6.85699L0.874902 6.85699C0.642864 6.85699 0.420329 6.7667 0.256253 6.60598C0.0921769 6.44527 -2.52333e-07 6.22729 -2.62268e-07 6Z" fill="#33FFCC"/>
</svg>
