<svg width="56" height="56" viewBox="0 0 56 56" fill="none" xmlns="http://www.w3.org/2000/svg">
<g clip-path="url(#clip0_11_122)">
<path d="M27.132 0.230924C27.3964 0.0799156 27.6955 0.000488281 28 0.000488281C28.3045 0.000488281 28.6036 0.0799156 28.868 0.230924L41.993 7.73142C42.2608 7.88442 42.4835 8.1055 42.6384 8.37225C42.7933 8.63901 42.8749 8.94196 42.875 9.25042V23.2329L55.118 30.2329C55.3848 30.3853 55.6068 30.6053 55.7616 30.8707C55.9165 31.1361 55.9987 31.4376 56 31.7449V46.7459C55.9999 47.0544 55.9183 47.3573 55.7634 47.6241C55.6085 47.8909 55.3858 48.1119 55.118 48.2649L41.993 55.7654C41.7286 55.9164 41.4295 55.9959 41.125 55.9959C40.8205 55.9959 40.5214 55.9164 40.257 55.7654L28 48.7654L15.743 55.7689C15.4786 55.9199 15.1795 55.9994 14.875 55.9994C14.5705 55.9994 14.2714 55.9199 14.007 55.7689L0.882 48.2684C0.614155 48.1154 0.391509 47.8944 0.236619 47.6276C0.0817294 47.3608 9.94946e-05 47.0579 0 46.7494L0 31.7484C9.94946e-05 31.44 0.0817294 31.137 0.236619 30.8703C0.391509 30.6035 0.614155 30.3824 0.882 30.2294L13.125 23.2329V9.25042C13.1251 8.94196 13.2067 8.63901 13.3616 8.37225C13.5165 8.1055 13.7392 7.88442 14.007 7.73142L27.132 0.230924ZM14.875 26.2639L5.278 31.7484L14.875 37.2329L24.472 31.7484L14.875 26.2639ZM26.25 34.7654L16.625 40.2639V51.2329L26.25 45.7344V34.7654ZM29.75 45.7344L39.375 51.2329V40.2639L29.75 34.7654V45.7344ZM31.528 31.7484L41.125 37.2329L50.722 31.7484L41.125 26.2639L31.528 31.7484ZM39.375 23.2329V12.2639L29.75 17.7659V28.7349L39.375 23.2329ZM26.25 28.7349V17.7659L16.625 12.2639V23.2329L26.25 28.7349ZM18.403 9.25042L28 14.7349L37.597 9.25042L28 3.76592L18.403 9.25042ZM52.5 34.7654L42.875 40.2639V51.2329L52.5 45.7344V34.7654ZM13.125 51.2329V40.2639L3.5 34.7654V45.7344L13.125 51.2329Z" fill="#FFC107"/>
</g>
<defs>
<clipPath id="clip0_11_122">
<rect width="56" height="56" fill="white"/>
</clipPath>
</defs>
</svg>
