<svg width="40" height="40" viewBox="0 0 40 40" fill="none" xmlns="http://www.w3.org/2000/svg">
<path d="M6.24999 20.0002C6.24961 17.5863 6.88468 15.215 8.09134 13.1244C9.298 11.0338 11.0337 9.29776 13.1241 8.09069C15.2144 6.88363 17.5856 6.2481 19.9995 6.24801C22.4133 6.24791 24.7846 6.88325 26.875 8.09016C27.1619 8.2533 27.5018 8.29633 27.8203 8.20984C28.1389 8.12336 28.4103 7.91438 28.5753 7.62852C28.7404 7.34267 28.7857 7.00313 28.7013 6.68401C28.6169 6.36489 28.4098 6.09209 28.125 5.92516C25.0271 4.13661 21.4257 3.42021 17.8792 3.88706C14.3327 4.3539 11.0393 5.97791 8.50988 8.50722C5.98041 11.0365 4.35619 14.3298 3.88912 17.8762C3.42204 21.4227 4.13821 25.0242 5.92656 28.1222C7.7149 31.2201 10.4755 33.6415 13.7802 35.0106C17.0849 36.3798 20.749 36.6203 24.2043 35.6948C27.6596 34.7693 30.713 32.7295 32.8909 29.8919C35.0688 27.0542 36.2495 23.5772 36.25 20.0002C36.25 19.6686 36.1183 19.3507 35.8839 19.1163C35.6495 18.8819 35.3315 18.7502 35 18.7502C34.6685 18.7502 34.3505 18.8819 34.1161 19.1163C33.8817 19.3507 33.75 19.6686 33.75 20.0002C33.75 23.6469 32.3013 27.1442 29.7227 29.7229C27.1441 32.3015 23.6467 33.7502 20 33.7502C16.3533 33.7502 12.8559 32.3015 10.2773 29.7229C7.69865 27.1442 6.24999 23.6469 6.24999 20.0002Z" fill="#33FFCC"/>
<path d="M38.3851 8.38511C38.5013 8.26889 38.5935 8.13092 38.6564 7.97907C38.7193 7.82722 38.7517 7.66447 38.7517 7.50011C38.7517 7.33575 38.7193 7.173 38.6564 7.02116C38.5935 6.86931 38.5013 6.73133 38.3851 6.61511C38.2689 6.49889 38.1309 6.4067 37.9791 6.34381C37.8272 6.28091 37.6645 6.24854 37.5001 6.24854C37.3358 6.24854 37.173 6.28091 37.0212 6.34381C36.8693 6.4067 36.7313 6.49889 36.6151 6.61511L20.0001 23.2326L13.3851 16.6151C13.2689 16.4989 13.1309 16.4067 12.9791 16.3438C12.8272 16.2809 12.6645 16.2485 12.5001 16.2485C12.3358 16.2485 12.173 16.2809 12.0212 16.3438C11.8693 16.4067 11.7313 16.4989 11.6151 16.6151C11.4989 16.7313 11.4067 16.8693 11.3438 17.0212C11.2809 17.173 11.2485 17.3358 11.2485 17.5001C11.2485 17.6645 11.2809 17.8272 11.3438 17.9791C11.4067 18.1309 11.4989 18.2689 11.6151 18.3851L19.1151 25.8851C19.2312 26.0015 19.3692 26.0939 19.521 26.1569C19.6729 26.2199 19.8357 26.2523 20.0001 26.2523C20.1645 26.2523 20.3273 26.2199 20.4792 26.1569C20.6311 26.0939 20.769 26.0015 20.8851 25.8851L38.3851 8.38511Z" fill="#33FFCC"/>
</svg>
