<svg width="56" height="56" viewBox="0 0 56 56" fill="none" xmlns="http://www.w3.org/2000/svg">
<path d="M0 5.25C0 3.85761 0.553123 2.52226 1.53769 1.53769C2.52226 0.553123 3.85761 0 5.25 0L33.25 0C34.6424 0 35.9777 0.553123 36.9623 1.53769C37.9469 2.52226 38.5 3.85761 38.5 5.25V12.25C38.5 13.6424 37.9469 14.9777 36.9623 15.9623C35.9777 16.9469 34.6424 17.5 33.25 17.5H5.25C3.85761 17.5 2.52226 16.9469 1.53769 15.9623C0.553123 14.9777 0 13.6424 0 12.25L0 5.25ZM5.25 3.5C4.78587 3.5 4.34075 3.68437 4.01256 4.01256C3.68437 4.34075 3.5 4.78587 3.5 5.25V12.25C3.5 12.7141 3.68437 13.1592 4.01256 13.4874C4.34075 13.8156 4.78587 14 5.25 14H33.25C33.7141 14 34.1592 13.8156 34.4874 13.4874C34.8156 13.1592 35 12.7141 35 12.25V5.25C35 4.78587 34.8156 4.34075 34.4874 4.01256C34.1592 3.68437 33.7141 3.5 33.25 3.5H5.25Z" fill="#FFC107"/>
<path d="M27.3805 9.8805L25.9945 8.4945C25.8718 8.37212 25.7882 8.21607 25.7543 8.04614C25.7204 7.8762 25.7378 7.70002 25.8041 7.53994C25.8705 7.37986 25.9829 7.24309 26.1271 7.14697C26.2712 7.05084 26.4407 6.99969 26.614 7H29.386C29.5593 6.99969 29.7288 7.05084 29.8729 7.14697C30.0171 7.24309 30.1295 7.37986 30.1959 7.53994C30.2622 7.70002 30.2796 7.8762 30.2457 8.04614C30.2118 8.21607 30.1282 8.37212 30.0055 8.4945L28.6195 9.8805C28.5382 9.96199 28.4417 10.0266 28.3354 10.0707C28.2291 10.1149 28.1151 10.1376 28 10.1376C27.8849 10.1376 27.7709 10.1149 27.6646 10.0707C27.5583 10.0266 27.4618 9.96199 27.3805 9.8805ZM0 28C0 26.1435 0.737498 24.363 2.05025 23.0503C3.36301 21.7375 5.14348 21 7 21H49C50.8565 21 52.637 21.7375 53.9497 23.0503C55.2625 24.363 56 26.1435 56 28V45.5C56 47.3565 55.2625 49.137 53.9497 50.4497C52.637 51.7625 50.8565 52.5 49 52.5H7C5.14348 52.5 3.36301 51.7625 2.05025 50.4497C0.737498 49.137 0 47.3565 0 45.5V28ZM3.5 38.5V45.5C3.5 46.4283 3.86875 47.3185 4.52513 47.9749C5.1815 48.6312 6.07174 49 7 49H49C49.9283 49 50.8185 48.6312 51.4749 47.9749C52.1312 47.3185 52.5 46.4283 52.5 45.5V38.5H3.5ZM52.5 35V28C52.5 27.0717 52.1312 26.1815 51.4749 25.5251C50.8185 24.8688 49.9283 24.5 49 24.5H7C6.07174 24.5 5.1815 24.8688 4.52513 25.5251C3.86875 26.1815 3.5 27.0717 3.5 28V35H52.5ZM7 29.75C7 29.2859 7.18437 28.8408 7.51256 28.5126C7.84075 28.1844 8.28587 28 8.75 28H40.25C40.7141 28 41.1592 28.1844 41.4874 28.5126C41.8156 28.8408 42 29.2859 42 29.75C42 30.2141 41.8156 30.6593 41.4874 30.9874C41.1592 31.3156 40.7141 31.5 40.25 31.5H8.75C8.28587 31.5 7.84075 31.3156 7.51256 30.9874C7.18437 30.6593 7 30.2141 7 29.75ZM7 43.75C7 43.2859 7.18437 42.8408 7.51256 42.5126C7.84075 42.1844 8.28587 42 8.75 42H29.75C30.2141 42 30.6593 42.1844 30.9874 42.5126C31.3156 42.8408 31.5 43.2859 31.5 43.75C31.5 44.2141 31.3156 44.6592 30.9874 44.9874C30.6593 45.3156 30.2141 45.5 29.75 45.5H8.75C8.28587 45.5 7.84075 45.3156 7.51256 44.9874C7.18437 44.6592 7 44.2141 7 43.75Z" fill="#FFC107"/>
</svg>
