<svg width="56" height="56" viewBox="0 0 56 56" fill="none" xmlns="http://www.w3.org/2000/svg">
<path d="M28.21 22.75C28.6741 22.75 29.1193 22.9344 29.4475 23.2626C29.7756 23.5908 29.96 24.0359 29.96 24.5V27.216C29.9596 31.3969 29.3078 35.5523 28.028 39.5325L23.3695 54.0225C23.2191 54.4533 22.9064 54.8083 22.498 55.0118C22.0897 55.2153 21.6179 55.2514 21.1834 55.1121C20.7489 54.9729 20.3859 54.6695 20.1719 54.2666C19.9578 53.8636 19.9096 53.393 20.0375 52.955L24.6925 38.4615C25.861 34.8274 26.4561 31.0334 26.4565 27.216V24.5C26.4565 24.0359 26.6409 23.5908 26.9691 23.2626C27.2973 22.9344 27.7424 22.75 28.2065 22.75H28.21Z" fill="#FFC107"/>
<path d="M21.21 24.5C21.21 23.5807 21.3911 22.6705 21.7428 21.8212C22.0946 20.9719 22.6102 20.2003 23.2603 19.5503C23.9103 18.9002 24.6819 18.3846 25.5312 18.0328C26.3805 17.6811 27.2908 17.5 28.21 17.5C29.1293 17.5 30.0395 17.6811 30.8888 18.0328C31.7381 18.3846 32.5097 18.9002 33.1598 19.5503C33.8098 20.2003 34.3254 20.9719 34.6772 21.8212C35.0289 22.6705 35.21 23.5807 35.21 24.5C35.21 24.9641 35.0256 25.4092 34.6974 25.7374C34.3693 26.0656 33.9241 26.25 33.46 26.25C32.9959 26.25 32.5508 26.0656 32.2226 25.7374C31.8944 25.4092 31.71 24.9641 31.71 24.5C31.71 23.5717 31.3413 22.6815 30.6849 22.0251C30.0285 21.3687 29.1383 21 28.21 21C27.2817 21 26.3915 21.3687 25.7351 22.0251C25.0788 22.6815 24.71 23.5717 24.71 24.5V25.662C24.71 27.0935 24.633 28.518 24.479 29.9355C24.4184 30.3874 24.1839 30.7978 23.8253 31.0794C23.4667 31.361 23.0123 31.4915 22.5589 31.4432C22.1056 31.3948 21.689 31.1714 21.3978 30.8206C21.1066 30.4697 20.9639 30.019 21 29.5645C21.14 28.2695 21.21 26.9675 21.21 25.662V24.5ZM33.4915 28C33.7213 28.0059 33.9478 28.057 34.1578 28.1505C34.3679 28.2439 34.5575 28.3778 34.7158 28.5446C34.8741 28.7113 34.998 28.9076 35.0804 29.1223C35.1628 29.3369 35.2021 29.5657 35.196 29.7955C35.0923 33.7711 34.3999 37.7094 33.1415 41.482L28.7105 54.782C28.5634 55.2225 28.2473 55.5864 27.8318 55.7938C27.4163 56.0013 26.9355 56.0351 26.495 55.888C26.0545 55.7409 25.6906 55.4248 25.4832 55.0093C25.2757 54.5938 25.2419 54.113 25.389 53.6725L29.8235 40.3725C30.9711 36.9285 31.6022 33.3335 31.696 29.7045C31.7019 29.4747 31.753 29.2482 31.8465 29.0382C31.9399 28.8281 32.0738 28.6385 32.2406 28.4802C32.4073 28.3219 32.6036 28.198 32.8183 28.1156C33.0329 28.0332 33.2617 27.9939 33.4915 28ZM21.7455 35.4025C21.9653 35.4704 22.1696 35.5809 22.3466 35.7278C22.5237 35.8747 22.67 36.055 22.7773 36.2585C22.8845 36.462 22.9506 36.6847 22.9718 36.9137C22.9929 37.1428 22.9687 37.3738 22.9005 37.5935L18.34 52.2865C18.2754 52.5099 18.1668 52.7183 18.0207 52.8993C17.8747 53.0803 17.6939 53.2303 17.4892 53.3407C17.2844 53.451 17.0597 53.5195 16.8282 53.542C16.5967 53.5645 16.363 53.5406 16.1408 53.4717C15.9187 53.4029 15.7124 53.2904 15.5342 53.1409C15.356 52.9914 15.2094 52.8079 15.103 52.6011C14.9965 52.3943 14.9324 52.1683 14.9142 51.9364C14.8961 51.7045 14.9244 51.4713 14.9975 51.2505L19.558 36.554C19.6958 36.1115 20.0036 35.7418 20.4137 35.5259C20.8237 35.3101 21.3027 35.2657 21.7455 35.4025Z" fill="#FFC107"/>
<path d="M16.6565 20.4155C17.6231 17.6946 19.5195 15.4025 22.0112 13.9434C24.5029 12.4844 27.4298 11.9521 30.2756 12.4405C33.1215 12.9289 35.7034 14.4066 37.5661 16.6129C39.4287 18.8193 40.4524 21.6125 40.4565 24.5C40.4565 24.9641 40.2721 25.4092 39.9439 25.7374C39.6157 26.0656 39.1706 26.25 38.7065 26.25C38.2424 26.25 37.7972 26.0656 37.4691 25.7374C37.1409 25.4092 36.9565 24.9641 36.9565 24.5C36.9562 22.436 36.2263 20.4386 34.8958 18.8607C33.5653 17.2829 31.7198 16.2261 29.6856 15.8773C27.6513 15.5284 25.5592 15.9098 23.779 16.9542C21.9988 17.9985 20.645 19.6386 19.957 21.5845C19.802 22.0221 19.4794 22.3803 19.0603 22.5802C18.6412 22.78 18.1599 22.8052 17.7222 22.6502C17.2846 22.4952 16.9264 22.1726 16.7265 21.7536C16.5267 21.3345 16.5015 20.8531 16.6565 20.4155ZM17.7065 26.2605C18.1683 26.3056 18.5932 26.5323 18.8879 26.8906C19.1826 27.249 19.3229 27.7097 19.278 28.1715C19.0417 30.5806 18.5729 32.9612 17.878 35.28L13.601 49.532C13.4678 49.9766 13.1634 50.3501 12.7548 50.5703C12.3462 50.7905 11.8669 50.8394 11.4222 50.7062C10.9776 50.573 10.6041 50.2686 10.3839 49.86C10.1637 49.4514 10.1148 48.9721 10.248 48.5275L14.525 34.2755C15.1555 32.1725 15.581 30.0134 15.7955 27.8285C15.8406 27.3667 16.0673 26.9418 16.4257 26.6471C16.784 26.3524 17.2447 26.2121 17.7065 26.257V26.2605ZM38.7065 28.525C39.1706 28.525 39.6157 28.7093 39.9439 29.0375C40.2721 29.3657 40.4565 29.8108 40.4565 30.275C40.4565 34.755 39.711 39.207 38.2445 43.442L34.4295 54.4495C34.2633 54.8685 33.9419 55.2073 33.5321 55.3952C33.1223 55.5831 32.6559 55.6056 32.2299 55.4581C31.8039 55.3105 31.4513 55.0043 31.2456 54.6032C31.0398 54.202 30.9968 53.737 31.1255 53.305L34.937 42.2975C36.274 38.43 36.96 34.3665 36.96 30.275C36.96 29.8108 37.1444 29.3657 37.4726 29.0375C37.8008 28.7093 38.2459 28.525 38.71 28.525H38.7065Z" fill="#FFC107"/>
<path d="M13.657 14.777C15.6014 11.8619 18.3768 9.5983 21.6233 8.27961C24.8698 6.96093 28.4376 6.64804 31.864 7.38152C32.089 7.42932 32.3024 7.52097 32.4919 7.65123C32.6815 7.78149 32.8436 7.94781 32.9688 8.1407C33.0941 8.33359 33.1802 8.54927 33.2221 8.77543C33.2641 9.00158 33.2611 9.23378 33.2133 9.45877C33.1655 9.68376 33.0738 9.89712 32.9435 10.0867C32.8133 10.2763 32.647 10.4383 32.4541 10.5636C32.2612 10.6889 32.0455 10.775 31.8193 10.8169C31.5932 10.8588 31.361 10.8558 31.136 10.808C28.3943 10.2196 25.5389 10.469 22.9407 11.5238C20.3425 12.5786 18.1213 14.39 16.5655 16.723C16.3037 17.0999 15.9044 17.3589 15.4536 17.4442C15.0027 17.5295 14.5364 17.4343 14.155 17.1792C13.7737 16.924 13.5078 16.5293 13.4146 16.08C13.3215 15.6307 13.4085 15.1628 13.657 14.777ZM37.177 11.4345C37.4801 11.0833 37.9104 10.8668 38.3731 10.8327C38.8358 10.7985 39.2931 10.9496 39.6445 11.2525C41.549 12.8942 43.0765 14.9277 44.1228 17.214C45.169 19.5004 45.7092 21.9857 45.7065 24.5V29.75C45.7065 30.2141 45.5221 30.6593 45.1939 30.9875C44.8658 31.3156 44.4206 31.5 43.9565 31.5C43.4924 31.5 43.0473 31.3156 42.7191 30.9875C42.3909 30.6593 42.2065 30.2141 42.2065 29.75V24.5C42.209 22.4883 41.7768 20.4999 40.9395 18.6707C40.1023 16.8416 38.8797 15.2149 37.3555 13.902C37.0048 13.5984 36.789 13.1679 36.7555 12.7052C36.722 12.2425 36.8736 11.7855 37.177 11.4345ZM12.88 20.447C13.1076 20.4804 13.3264 20.5584 13.5238 20.6764C13.7212 20.7944 13.8935 20.9502 14.0306 21.1348C14.1678 21.3195 14.2673 21.5293 14.3233 21.7524C14.3793 21.9755 14.3907 22.2075 14.357 22.435C14.2555 23.107 14.203 23.8 14.203 24.5C14.203 26.985 13.853 29.4595 13.16 31.85L9.17 45.5805C9.11021 45.806 9.00593 46.0173 8.8633 46.2019C8.72067 46.3865 8.54256 46.5408 8.33946 46.6555C8.13635 46.7703 7.91235 46.8433 7.68061 46.8703C7.44888 46.8972 7.21409 46.8776 6.99007 46.8125C6.76604 46.7474 6.55729 46.6381 6.3761 46.4912C6.19491 46.3442 6.04493 46.1625 5.93498 45.9567C5.82504 45.751 5.75734 45.5253 5.73588 45.293C5.71441 45.0607 5.73962 44.8264 5.81 44.604L9.8 30.8735C10.4001 28.8022 10.7041 26.6565 10.703 24.5C10.703 23.625 10.7695 22.764 10.892 21.924C10.9254 21.6964 11.0033 21.4777 11.1214 21.2802C11.2394 21.0828 11.3952 20.9106 11.5798 20.7734C11.7644 20.6362 11.9743 20.5368 12.1974 20.4808C12.4205 20.4248 12.6525 20.4133 12.88 20.447ZM43.967 33.257C44.4292 33.2962 44.8569 33.5173 45.1562 33.8717C45.4554 34.2261 45.6018 34.6848 45.563 35.147C45.269 38.647 44.52 42.098 43.323 45.416L40.719 52.654C40.5567 53.0835 40.2321 53.4319 39.8152 53.6242C39.3983 53.8166 38.9226 53.8374 38.4905 53.6822C38.0584 53.527 37.7046 53.2082 37.5054 52.7946C37.3062 52.381 37.2775 51.9056 37.4255 51.471L40.033 44.226C41.1206 41.2043 41.8077 38.0532 42.077 34.853C42.1162 34.3908 42.3373 33.9631 42.6917 33.6638C43.0461 33.3646 43.5048 33.2183 43.967 33.257Z" fill="#FFC107"/>
<path d="M16.8351 4.79499C20.2938 2.79814 24.2171 1.74694 28.2108 1.74707C32.2046 1.7472 36.1279 2.79865 39.5864 4.79572C43.0449 6.7928 45.9168 9.66512 47.9133 13.124C49.9098 16.5828 50.9606 20.5063 50.9601 24.5C50.9601 24.9641 50.7757 25.4092 50.4476 25.7374C50.1194 26.0656 49.6743 26.25 49.2101 26.25C48.746 26.25 48.3009 26.0656 47.9727 25.7374C47.6445 25.4092 47.4601 24.9641 47.4601 24.5C47.4613 21.1204 46.5726 17.8 44.8835 14.8727C43.1945 11.9454 40.7645 9.51443 37.8379 7.82412C34.9114 6.13381 31.5914 5.24377 28.2117 5.24348C24.8321 5.2432 21.512 6.13268 18.5851 7.82249C18.1852 8.03171 17.7199 8.07831 17.2864 7.95255C16.8529 7.82679 16.4847 7.5384 16.2589 7.14762C16.033 6.75685 15.9668 6.2939 16.0742 5.8555C16.1816 5.4171 16.4542 5.03714 16.8351 4.79499ZM13.7201 9.19449C13.8916 9.34754 14.0312 9.53287 14.131 9.73988C14.2308 9.94689 14.2889 10.1715 14.3019 10.401C14.3149 10.6305 14.2826 10.8602 14.2068 11.0772C14.131 11.2941 14.0132 11.4941 13.8601 11.6655C10.6975 15.1915 8.95204 19.7634 8.96012 24.5C8.96012 24.9641 8.77574 25.4092 8.44756 25.7374C8.11937 26.0656 7.67425 26.25 7.21012 26.25C6.74599 26.25 6.30087 26.0656 5.97268 25.7374C5.64449 25.4092 5.46012 24.9641 5.46012 24.5C5.46012 18.676 7.65112 13.356 11.2526 9.33449C11.4057 9.16304 11.591 9.02342 11.798 8.9236C12.005 8.82378 12.2297 8.76571 12.4591 8.75271C12.6886 8.73971 12.9183 8.77203 13.1353 8.84783C13.3523 8.92363 13.5522 9.04143 13.7236 9.19449H13.7201ZM6.70262 28.07C7.14889 28.1956 7.52707 28.4933 7.75412 28.8975C7.98117 29.3017 8.03853 29.7795 7.91362 30.226L5.18712 39.9105C5.13269 40.1399 5.03245 40.356 4.89242 40.5457C4.7524 40.7355 4.57547 40.8949 4.37227 41.0146C4.16906 41.1342 3.94377 41.2116 3.70993 41.242C3.47609 41.2724 3.23852 41.2552 3.01148 41.1915C2.78445 41.1277 2.57263 41.0188 2.38876 40.8712C2.20488 40.7235 2.05274 40.5402 1.94146 40.3323C1.83019 40.1244 1.76208 39.8962 1.74123 39.6613C1.72038 39.4264 1.74721 39.1897 1.82012 38.9655L4.54312 29.281C4.60532 29.0596 4.71053 28.8527 4.85274 28.672C4.99495 28.4913 5.17137 28.3405 5.37192 28.228C5.57247 28.1155 5.79322 28.0437 6.02155 28.0166C6.24988 27.9895 6.48131 28.0076 6.70262 28.07ZM49.2276 29.7535C49.4574 29.758 49.6841 29.8078 49.8947 29.9C50.1053 29.9922 50.2956 30.1249 50.4549 30.2907C50.6142 30.4565 50.7392 30.652 50.8229 30.8661C50.9066 31.0802 50.9473 31.3087 50.9426 31.5385C50.8376 36.785 50.3791 42.126 48.3981 47.404L48.1531 48.0585C47.9817 48.4811 47.6521 48.8202 47.2344 49.0034C46.8167 49.1866 46.344 49.1995 45.9169 49.0394C45.4899 48.8792 45.1422 48.5587 44.948 48.146C44.7538 47.7333 44.7284 47.2611 44.8771 46.83L45.1221 46.1755C46.8931 41.4505 47.3411 36.5855 47.4426 31.4685C47.4472 31.2387 47.497 31.012 47.5891 30.8014C47.6813 30.5908 47.8141 30.4005 47.9798 30.2412C48.1456 30.0819 48.3411 29.9569 48.5552 29.8732C48.7693 29.7895 48.9978 29.7488 49.2276 29.7535Z" fill="#FFC107"/>
</svg>
