<svg width="34" height="34" viewBox="0 0 34 34" fill="none" xmlns="http://www.w3.org/2000/svg">
<path d="M23.25 19.5C22.9185 19.5 22.6005 19.6317 22.3661 19.8661C22.1317 20.1005 22 20.4185 22 20.75C22 21.0815 22.1317 21.3995 22.3661 21.6339C22.6005 21.8683 22.9185 22 23.25 22H27C27.3315 22 27.6495 21.8683 27.8839 21.6339C28.1183 21.3995 28.25 21.0815 28.25 20.75C28.25 20.4185 28.1183 20.1005 27.8839 19.8661C27.6495 19.6317 27.3315 19.5 27 19.5H23.25ZM0.750003 4.5C0.750003 3.50544 1.14509 2.55161 1.84835 1.84835C2.55161 1.14509 3.50544 0.75 4.5 0.75H25.4375C26.5149 0.75 27.5483 1.17801 28.3101 1.93988C29.072 2.70175 29.5 3.73506 29.5 4.8125V6.07C31.685 6.8425 33.25 8.92625 33.25 11.375V27.625C33.25 29.1168 32.6574 30.5476 31.6025 31.6025C30.5476 32.6574 29.1168 33.25 27.625 33.25H6.375C4.88316 33.25 3.45242 32.6574 2.39753 31.6025C1.34263 30.5476 0.750003 29.1168 0.750003 27.625V4.8125H0.762503C0.754049 4.70855 0.749879 4.60429 0.750003 4.5ZM27.625 8.25H3.25V27.625C3.25 28.4538 3.57924 29.2487 4.16529 29.8347C4.75135 30.4208 5.5462 30.75 6.375 30.75H27.625C28.4538 30.75 29.2487 30.4208 29.8347 29.8347C30.4208 29.2487 30.75 28.4538 30.75 27.625V11.375C30.75 10.5462 30.4208 9.75134 29.8347 9.16529C29.2487 8.57924 28.4538 8.25 27.625 8.25ZM27 4.8125C27 3.95 26.3 3.25 25.4375 3.25H4.5C4.16848 3.25 3.85054 3.3817 3.61612 3.61612C3.3817 3.85054 3.25 4.16848 3.25 4.5C3.25 4.83152 3.3817 5.14946 3.61612 5.38388C3.85054 5.6183 4.16848 5.75 4.5 5.75H27V4.8125Z" fill="#33FFCC"/>
</svg>
