<svg width="131" height="34" viewBox="0 0 131 34" fill="none" xmlns="http://www.w3.org/2000/svg">
<path d="M53.888 6.392V15H51.504V14.008C50.8853 14.7547 49.9893 15.128 48.816 15.128C48.0053 15.128 47.2693 14.9467 46.608 14.584C45.9573 14.2213 45.4453 13.704 45.072 13.032C44.6987 12.36 44.512 11.5813 44.512 10.696C44.512 9.81067 44.6987 9.032 45.072 8.36C45.4453 7.688 45.9573 7.17067 46.608 6.808C47.2693 6.44533 48.0053 6.264 48.816 6.264C49.9147 6.264 50.7733 6.61067 51.392 7.304V6.392H53.888ZM49.248 13.08C49.8773 13.08 50.4 12.8667 50.816 12.44C51.232 12.0027 51.44 11.4213 51.44 10.696C51.44 9.97067 51.232 9.39467 50.816 8.968C50.4 8.53067 49.8773 8.312 49.248 8.312C48.608 8.312 48.08 8.53067 47.664 8.968C47.248 9.39467 47.04 9.97067 47.04 10.696C47.04 11.4213 47.248 12.0027 47.664 12.44C48.08 12.8667 48.608 13.08 49.248 13.08ZM59.2869 15.128C58.3162 15.128 57.5589 14.872 57.0149 14.36C56.4709 13.8373 56.1989 13.1013 56.1989 12.152V3.128H58.6949V12.008C58.6949 12.3707 58.7855 12.6533 58.9669 12.856C59.1589 13.048 59.4255 13.144 59.7669 13.144C59.8949 13.144 60.0229 13.128 60.1509 13.096C60.2895 13.064 60.3962 13.0267 60.4709 12.984L60.5829 14.92C60.1669 15.0587 59.7349 15.128 59.2869 15.128ZM64.8963 15.128C63.9256 15.128 63.1683 14.872 62.6243 14.36C62.0803 13.8373 61.8083 13.1013 61.8083 12.152V3.128H64.3043V12.008C64.3043 12.3707 64.3949 12.6533 64.5763 12.856C64.7683 13.048 65.0349 13.144 65.3763 13.144C65.5043 13.144 65.6323 13.128 65.7603 13.096C65.8989 13.064 66.0056 13.0267 66.0803 12.984L66.1923 14.92C65.7763 15.0587 65.3443 15.128 64.8963 15.128ZM71.4214 15.128C70.504 15.128 69.6774 14.9413 68.9414 14.568C68.216 14.184 67.6454 13.656 67.2294 12.984C66.824 12.312 66.6214 11.5493 66.6214 10.696C66.6214 9.84267 66.824 9.08 67.2294 8.408C67.6454 7.736 68.216 7.21333 68.9414 6.84C69.6774 6.456 70.504 6.264 71.4214 6.264C72.328 6.264 73.1174 6.456 73.7894 6.84C74.472 7.21333 74.968 7.752 75.2774 8.456L73.3414 9.496C72.8934 8.70667 72.248 8.312 71.4054 8.312C70.7547 8.312 70.216 8.52533 69.7894 8.952C69.3627 9.37867 69.1494 9.96 69.1494 10.696C69.1494 11.432 69.3627 12.0133 69.7894 12.44C70.216 12.8667 70.7547 13.08 71.4054 13.08C72.2587 13.08 72.904 12.6853 73.3414 11.896L75.2774 12.952C74.968 13.6347 74.472 14.168 73.7894 14.552C73.1174 14.936 72.328 15.128 71.4214 15.128ZM80.7011 15.128C79.7945 15.128 78.9785 14.9413 78.2531 14.568C77.5385 14.184 76.9785 13.656 76.5731 12.984C76.1678 12.312 75.9651 11.5493 75.9651 10.696C75.9651 9.84267 76.1678 9.08 76.5731 8.408C76.9785 7.736 77.5385 7.21333 78.2531 6.84C78.9785 6.456 79.7945 6.264 80.7011 6.264C81.6078 6.264 82.4185 6.456 83.1331 6.84C83.8478 7.21333 84.4078 7.736 84.8131 8.408C85.2185 9.08 85.4211 9.84267 85.4211 10.696C85.4211 11.5493 85.2185 12.312 84.8131 12.984C84.4078 13.656 83.8478 14.184 83.1331 14.568C82.4185 14.9413 81.6078 15.128 80.7011 15.128ZM80.7011 13.08C81.3411 13.08 81.8638 12.8667 82.2691 12.44C82.6851 12.0027 82.8931 11.4213 82.8931 10.696C82.8931 9.97067 82.6851 9.39467 82.2691 8.968C81.8638 8.53067 81.3411 8.312 80.7011 8.312C80.0611 8.312 79.5331 8.53067 79.1171 8.968C78.7011 9.39467 78.4931 9.97067 78.4931 10.696C78.4931 11.4213 78.7011 12.0027 79.1171 12.44C79.5331 12.8667 80.0611 13.08 80.7011 13.08ZM87.0895 6.392H89.5855V15H87.0895V6.392ZM88.3375 5.192C87.8788 5.192 87.5055 5.05867 87.2175 4.792C86.9295 4.52533 86.7855 4.19467 86.7855 3.8C86.7855 3.40533 86.9295 3.07467 87.2175 2.808C87.5055 2.54133 87.8788 2.408 88.3375 2.408C88.7962 2.408 89.1695 2.536 89.4575 2.792C89.7455 3.048 89.8895 3.368 89.8895 3.752C89.8895 4.168 89.7455 4.51467 89.4575 4.792C89.1695 5.05867 88.7962 5.192 88.3375 5.192ZM97.134 6.264C98.2007 6.264 99.0593 6.584 99.71 7.224C100.371 7.864 100.702 8.81333 100.702 10.072V15H98.206V10.456C98.206 9.77333 98.0567 9.26667 97.758 8.936C97.4593 8.59467 97.0273 8.424 96.462 8.424C95.8327 8.424 95.3313 8.62133 94.958 9.016C94.5847 9.4 94.398 9.976 94.398 10.744V15H91.902V6.392H94.286V7.4C94.6167 7.03733 95.0273 6.76 95.518 6.568C96.0087 6.36533 96.5473 6.264 97.134 6.264ZM105.861 15.128C105.146 15.128 104.447 15.0427 103.765 14.872C103.082 14.6907 102.538 14.4667 102.133 14.2L102.965 12.408C103.349 12.6533 103.813 12.856 104.357 13.016C104.901 13.1653 105.434 13.24 105.957 13.24C107.013 13.24 107.541 12.9787 107.541 12.456C107.541 12.2107 107.397 12.0347 107.109 11.928C106.821 11.8213 106.378 11.7307 105.781 11.656C105.077 11.5493 104.495 11.4267 104.037 11.288C103.578 11.1493 103.178 10.904 102.837 10.552C102.506 10.2 102.34 9.69867 102.34 9.048C102.34 8.504 102.495 8.024 102.805 7.608C103.125 7.18133 103.583 6.85067 104.181 6.616C104.789 6.38133 105.503 6.264 106.325 6.264C106.933 6.264 107.535 6.33333 108.133 6.472C108.741 6.6 109.242 6.78133 109.637 7.016L108.805 8.792C108.047 8.36533 107.221 8.152 106.325 8.152C105.791 8.152 105.391 8.22667 105.125 8.376C104.858 8.52533 104.725 8.71733 104.725 8.952C104.725 9.21867 104.869 9.40533 105.157 9.512C105.445 9.61867 105.903 9.72 106.533 9.816C107.237 9.93333 107.813 10.0613 108.261 10.2C108.709 10.328 109.098 10.568 109.429 10.92C109.759 11.272 109.925 11.7627 109.925 12.392C109.925 12.9253 109.765 13.4 109.445 13.816C109.125 14.232 108.655 14.5573 108.037 14.792C107.429 15.016 106.703 15.128 105.861 15.128ZM50.24 20.264C51.04 20.264 51.7653 20.4507 52.416 20.824C53.0773 21.1867 53.5947 21.704 53.968 22.376C54.3413 23.0373 54.528 23.8107 54.528 24.696C54.528 25.5813 54.3413 26.36 53.968 27.032C53.5947 27.6933 53.0773 28.2107 52.416 28.584C51.7653 28.9467 51.04 29.128 50.24 29.128C49.1413 29.128 48.2773 28.7813 47.648 28.088V32.104H45.152V20.392H47.536V21.384C48.1547 20.6373 49.056 20.264 50.24 20.264ZM49.808 27.08C50.448 27.08 50.9707 26.8667 51.376 26.44C51.792 26.0027 52 25.4213 52 24.696C52 23.9707 51.792 23.3947 51.376 22.968C50.9707 22.5307 50.448 22.312 49.808 22.312C49.168 22.312 48.64 22.5307 48.224 22.968C47.8187 23.3947 47.616 23.9707 47.616 24.696C47.616 25.4213 47.8187 26.0027 48.224 26.44C48.64 26.8667 49.168 27.08 49.808 27.08ZM64.9349 20.392V29H62.5509V28.008C61.9322 28.7547 61.0362 29.128 59.8629 29.128C59.0522 29.128 58.3162 28.9467 57.6549 28.584C57.0042 28.2213 56.4922 27.704 56.1189 27.032C55.7455 26.36 55.5589 25.5813 55.5589 24.696C55.5589 23.8107 55.7455 23.032 56.1189 22.36C56.4922 21.688 57.0042 21.1707 57.6549 20.808C58.3162 20.4453 59.0522 20.264 59.8629 20.264C60.9615 20.264 61.8202 20.6107 62.4389 21.304V20.392H64.9349ZM60.2949 27.08C60.9242 27.08 61.4469 26.8667 61.8629 26.44C62.2789 26.0027 62.4869 25.4213 62.4869 24.696C62.4869 23.9707 62.2789 23.3947 61.8629 22.968C61.4469 22.5307 60.9242 22.312 60.2949 22.312C59.6549 22.312 59.1269 22.5307 58.7109 22.968C58.2949 23.3947 58.0869 23.9707 58.0869 24.696C58.0869 25.4213 58.2949 26.0027 58.7109 26.44C59.1269 26.8667 59.6549 27.08 60.2949 27.08ZM75.9178 20.392V27.56C75.9178 29.1387 75.5178 30.312 74.7178 31.08C73.9178 31.848 72.7551 32.232 71.2298 32.232C70.4191 32.232 69.6511 32.1307 68.9258 31.928C68.2111 31.7253 67.6084 31.432 67.1178 31.048L68.1098 29.256C68.4724 29.5547 68.9151 29.7893 69.4378 29.96C69.9604 30.1307 70.4884 30.216 71.0218 30.216C71.8538 30.216 72.4618 30.024 72.8458 29.64C73.2298 29.256 73.4218 28.6693 73.4218 27.88V27.592C73.1018 27.912 72.7231 28.1573 72.2858 28.328C71.8484 28.4987 71.3791 28.584 70.8778 28.584C69.7471 28.584 68.8511 28.264 68.1898 27.624C67.5284 26.9733 67.1978 26.0027 67.1978 24.712V20.392H69.6938V24.344C69.6938 25.7413 70.2751 26.44 71.4378 26.44C72.0351 26.44 72.5151 26.248 72.8778 25.864C73.2404 25.4693 73.4218 24.888 73.4218 24.12V20.392H75.9178ZM89.2541 20.264C90.3315 20.264 91.1848 20.584 91.8141 21.224C92.4541 21.8533 92.7741 22.8027 92.7741 24.072V29H90.2781V24.456C90.2781 23.7733 90.1341 23.2667 89.8461 22.936C89.5688 22.5947 89.1688 22.424 88.6461 22.424C88.0595 22.424 87.5955 22.616 87.2541 23C86.9128 23.3733 86.7421 23.9333 86.7421 24.68V29H84.2461V24.456C84.2461 23.1013 83.7021 22.424 82.6141 22.424C82.0381 22.424 81.5795 22.616 81.2381 23C80.8968 23.3733 80.7261 23.9333 80.7261 24.68V29H78.2301V20.392H80.6141V21.384C80.9341 21.0213 81.3235 20.744 81.7821 20.552C82.2515 20.36 82.7635 20.264 83.3181 20.264C83.9261 20.264 84.4755 20.3867 84.9661 20.632C85.4568 20.8667 85.8515 21.2133 86.1501 21.672C86.5021 21.224 86.9448 20.8773 87.4781 20.632C88.0221 20.3867 88.6141 20.264 89.2541 20.264ZM99.4411 27.128C99.8891 27.128 100.284 27.064 100.625 26.936C100.977 26.7973 101.302 26.584 101.601 26.296L102.929 27.736C102.118 28.664 100.934 29.128 99.3771 29.128C98.4065 29.128 97.5478 28.9413 96.8011 28.568C96.0545 28.184 95.4785 27.656 95.0731 26.984C94.6678 26.312 94.4651 25.5493 94.4651 24.696C94.4651 23.8533 94.6625 23.096 95.0571 22.424C95.4625 21.7413 96.0118 21.2133 96.7051 20.84C97.4091 20.456 98.1985 20.264 99.0731 20.264C99.8945 20.264 100.641 20.44 101.313 20.792C101.985 21.1333 102.518 21.6347 102.913 22.296C103.318 22.9467 103.521 23.72 103.521 24.616L97.1531 25.848C97.3345 26.2747 97.6171 26.5947 98.0011 26.808C98.3958 27.0213 98.8758 27.128 99.4411 27.128ZM99.0731 22.152C98.4438 22.152 97.9318 22.3547 97.5371 22.76C97.1425 23.1653 96.9345 23.7253 96.9131 24.44L101.105 23.624C100.988 23.176 100.748 22.8187 100.385 22.552C100.022 22.2853 99.5851 22.152 99.0731 22.152ZM110.431 20.264C111.498 20.264 112.356 20.584 113.007 21.224C113.668 21.864 113.999 22.8133 113.999 24.072V29H111.503V24.456C111.503 23.7733 111.354 23.2667 111.055 22.936C110.756 22.5947 110.324 22.424 109.759 22.424C109.13 22.424 108.628 22.6213 108.255 23.016C107.882 23.4 107.695 23.976 107.695 24.744V29H105.199V20.392H107.583V21.4C107.914 21.0373 108.324 20.76 108.815 20.568C109.306 20.3653 109.844 20.264 110.431 20.264ZM121.445 28.584C121.2 28.7653 120.896 28.904 120.533 29C120.181 29.0853 119.813 29.128 119.429 29.128C118.395 29.128 117.6 28.8667 117.045 28.344C116.491 27.8213 116.213 27.0533 116.213 26.04V18.488H118.709V20.584H120.837V22.504H118.709V26.008C118.709 26.3707 118.8 26.6533 118.981 26.856C119.163 27.048 119.424 27.144 119.765 27.144C120.149 27.144 120.491 27.0373 120.789 26.824L121.445 28.584ZM125.751 29.128C125.036 29.128 124.338 29.0427 123.655 28.872C122.972 28.6907 122.428 28.4667 122.023 28.2L122.855 26.408C123.239 26.6533 123.703 26.856 124.247 27.016C124.791 27.1653 125.324 27.24 125.847 27.24C126.903 27.24 127.431 26.9787 127.431 26.456C127.431 26.2107 127.287 26.0347 126.999 25.928C126.711 25.8213 126.268 25.7307 125.671 25.656C124.967 25.5493 124.386 25.4267 123.927 25.288C123.468 25.1493 123.068 24.904 122.727 24.552C122.396 24.2 122.231 23.6987 122.231 23.048C122.231 22.504 122.386 22.024 122.695 21.608C123.015 21.1813 123.474 20.8507 124.071 20.616C124.679 20.3813 125.394 20.264 126.215 20.264C126.823 20.264 127.426 20.3333 128.023 20.472C128.631 20.6 129.132 20.7813 129.527 21.016L128.695 22.792C127.938 22.3653 127.111 22.152 126.215 22.152C125.682 22.152 125.282 22.2267 125.015 22.376C124.748 22.5253 124.615 22.7173 124.615 22.952C124.615 23.2187 124.759 23.4053 125.047 23.512C125.335 23.6187 125.794 23.72 126.423 23.816C127.127 23.9333 127.703 24.0613 128.151 24.2C128.599 24.328 128.988 24.568 129.319 24.92C129.65 25.272 129.815 25.7627 129.815 26.392C129.815 26.9253 129.655 27.4 129.335 27.816C129.015 28.232 128.546 28.5573 127.927 28.792C127.319 29.016 126.594 29.128 125.751 29.128Z" fill="#33FFCC"/>
<circle opacity="0.8" cx="17" cy="17" r="17" fill="#33FFCC"/>
<circle cx="17" cy="17" r="14" fill="#33FFCC"/>
<path d="M15.348 12.1297V20.8541H12.9711V19.8486C12.3543 20.6054 11.461 20.9838 10.2912 20.9838C9.48291 20.9838 8.7491 20.8 8.08974 20.4324C7.44102 20.0649 6.93055 19.5405 6.55833 18.8595C6.18611 18.1784 6 17.3892 6 16.4919C6 15.5946 6.18611 14.8054 6.55833 14.1243C6.93055 13.4432 7.44102 12.9189 8.08974 12.5514C8.7491 12.1838 9.48291 12 10.2912 12C11.3865 12 12.2426 12.3514 12.8595 13.0541V12.1297H15.348ZM10.7219 18.9081C11.3493 18.9081 11.8704 18.6919 12.2852 18.2595C12.6999 17.8162 12.9073 17.227 12.9073 16.4919C12.9073 15.7568 12.6999 15.173 12.2852 14.7405C11.8704 14.2973 11.3493 14.0757 10.7219 14.0757C10.0838 14.0757 9.55735 14.2973 9.14259 14.7405C8.72783 15.173 8.52045 15.7568 8.52045 16.4919C8.52045 17.227 8.72783 17.8162 9.14259 18.2595C9.55735 18.6919 10.0838 18.9081 10.7219 18.9081Z" fill="#262D37"/>
<path d="M22.7248 12C23.5224 12 24.2456 12.1892 24.8943 12.5676C25.5537 12.9351 26.0695 13.4595 26.4417 14.1405C26.8139 14.8108 27 15.5946 27 16.4919C27 17.3892 26.8139 18.1784 26.4417 18.8595C26.0695 19.5297 25.5537 20.0541 24.8943 20.4324C24.2456 20.8 23.5224 20.9838 22.7248 20.9838C21.6294 20.9838 20.768 20.6324 20.1405 19.9297V24H17.652V12.1297H20.0289V13.1351C20.6457 12.3784 21.5443 12 22.7248 12ZM22.2941 18.9081C22.9322 18.9081 23.4533 18.6919 23.8574 18.2595C24.2722 17.8162 24.4795 17.227 24.4795 16.4919C24.4795 15.7568 24.2722 15.173 23.8574 14.7405C23.4533 14.2973 22.9322 14.0757 22.2941 14.0757C21.656 14.0757 21.1296 14.2973 20.7148 14.7405C20.3107 15.173 20.1086 15.7568 20.1086 16.4919C20.1086 17.227 20.3107 17.8162 20.7148 18.2595C21.1296 18.6919 21.656 18.9081 22.2941 18.9081Z" fill="#262D37"/>
</svg>
