<svg width="24" height="24" viewBox="0 0 24 24" fill="none" xmlns="http://www.w3.org/2000/svg">
<path fill-rule="evenodd" clip-rule="evenodd" d="M5.99927 12.0006C5.99927 11.8017 6.07829 11.611 6.21894 11.4703C6.35959 11.3297 6.55035 11.2506 6.74927 11.2506L15.4388 11.2506L12.2183 8.03164C12.1485 7.96191 12.0932 7.87912 12.0555 7.78802C12.0177 7.69691 11.9983 7.59926 11.9983 7.50064C11.9983 7.40202 12.0177 7.30437 12.0555 7.21326C12.0932 7.12215 12.1485 7.03937 12.2183 6.96964C12.288 6.89991 12.3708 6.84459 12.4619 6.80685C12.553 6.76912 12.6507 6.74969 12.7493 6.74969C12.8479 6.74969 12.9455 6.76912 13.0366 6.80685C13.1278 6.84459 13.2105 6.89991 13.2803 6.96964L17.7803 11.4696C17.8501 11.5393 17.9055 11.6221 17.9433 11.7132C17.9811 11.8043 18.0006 11.902 18.0006 12.0006C18.0006 12.0993 17.9811 12.197 17.9433 12.2881C17.9055 12.3792 17.8501 12.462 17.7803 12.5316L13.2803 17.0316C13.2105 17.1014 13.1278 17.1567 13.0366 17.1944C12.9455 17.2322 12.8479 17.2516 12.7493 17.2516C12.6507 17.2516 12.553 17.2322 12.4619 17.1944C12.3708 17.1567 12.288 17.1014 12.2183 17.0316C12.0774 16.8908 11.9983 16.6998 11.9983 16.5006C11.9983 16.402 12.0177 16.3044 12.0555 16.2133C12.0932 16.1222 12.1485 16.0394 12.2183 15.9696L15.4388 12.7506L6.74927 12.7506C6.55035 12.7506 6.35959 12.6716 6.21894 12.531C6.07829 12.3903 5.99927 12.1996 5.99927 12.0006Z" fill="#3A4049"/>
</svg>
