<svg width="24" height="24" viewBox="0 0 24 24" fill="none" xmlns="http://www.w3.org/2000/svg">
<path d="M10.8715 14.4222C10.8715 13.6519 11.0428 13.0148 11.3855 12.5111C11.743 12.0074 12.257 11.4519 12.9274 10.8444C13.419 10.4 13.7765 10.0296 14 9.73333C14.2384 9.42222 14.3575 9.07407 14.3575 8.68889C14.3575 8.14074 14.1341 7.71111 13.6872 7.4C13.2551 7.07407 12.6741 6.91111 11.9441 6.91111C11.2439 6.91111 10.6182 7.05926 10.067 7.35555C9.53073 7.63704 9.07635 8.03704 8.70391 8.55555L6 6.97778C6.6257 6.02963 7.46741 5.2963 8.52514 4.77778C9.59777 4.25926 10.8641 4 12.324 4C14.0372 4 15.4078 4.36296 16.4358 5.08889C17.4786 5.81481 18 6.82222 18 8.11111C18 8.71852 17.8957 9.25185 17.6872 9.71111C17.4935 10.1704 17.2477 10.563 16.9497 10.8889C16.6667 11.2 16.2942 11.563 15.8324 11.9778C15.2812 12.4667 14.879 12.8815 14.6257 13.2222C14.3724 13.5481 14.2458 13.9481 14.2458 14.4222H10.8715ZM12.5698 20C11.959 20 11.4451 19.8074 11.0279 19.4222C10.6257 19.0222 10.4246 18.5407 10.4246 17.9778C10.4246 17.4148 10.6257 16.9481 11.0279 16.5778C11.4302 16.1926 11.9441 16 12.5698 16C13.1955 16 13.7095 16.1926 14.1117 16.5778C14.514 16.9481 14.7151 17.4148 14.7151 17.9778C14.7151 18.5407 14.5065 19.0222 14.0894 19.4222C13.6872 19.8074 13.1806 20 12.5698 20Z" fill="#33FFCC"/>
</svg>
